<svg width="512" height="512" xmlns="http://www.w3.org/2000/svg" class="ionicon">
 <title>Information Circle</title>

 <g>
  <title>Layer 1</title>
  <path id="svg_1" strokeWidth="32" strokeMiterlimit="10" stroke="currentColor" fill="none" d="m248,64c-101.61,0 -184,82.39 -184,184s82.39,184 184,184s184,-82.39 184,-184s-82.39,-184 -184,-184z"/>
  <path id="svg_2" d="m220,220l32,0l0,116" strokeWidth="32" strokeLinejoin="round" strokeLinecap="round" stroke="currentColor" fill="none"/>
  <path id="svg_3" d="m208,340l88,0" strokeWidth="32" strokeMiterlimit="10" strokeLinecap="round" stroke="currentColor" fill="none"/>
  <path id="svg_4" d="m248,130a26,26 0 1 0 26,26a26,26 0 0 0 -26,-26z"/>
  <path stroke="currentColor" id="svg_5" strokeWidth="32" strokeMiterlimit="10" fill="none" d="m248.00002,32.6667c-118.91314,0 -215.33332,96.42017 -215.33332,215.33332s96.42017,215.33332 215.33332,215.33332s215.33332,-96.42017 215.33332,-215.33332s-96.42017,-215.33332 -215.33332,-215.33332z"/>
 </g>
</svg>